<?xml version="1.0" encoding="UTF-8" standalone="no"?>
<svg
   height="480"
   width="800"
   version="1.1"
   id="svg3095"
   inkscape:version="1.3 (0e150ed, 2023-07-21)"
   sodipodi:docname="screen-template.5.svg"
   xml:space="preserve"
   xmlns:inkscape="http://www.inkscape.org/namespaces/inkscape"
   xmlns:sodipodi="http://sodipodi.sourceforge.net/DTD/sodipodi-0.dtd"
   xmlns="http://www.w3.org/2000/svg"
   xmlns:svg="http://www.w3.org/2000/svg"><defs
     id="defs8" /><sodipodi:namedview
     id="namedview8"
     pagecolor="#ffffff"
     bordercolor="#000000"
     borderopacity="0.25"
     inkscape:showpageshadow="2"
     inkscape:pageopacity="0.0"
     inkscape:pagecheckerboard="0"
     inkscape:deskcolor="#d1d1d1"
     showgrid="false"
     inkscape:zoom="1.086751"
     inkscape:cx="362.08846"
     inkscape:cy="312.85916"
     inkscape:window-width="1680"
     inkscape:window-height="949"
     inkscape:window-x="0"
     inkscape:window-y="25"
     inkscape:window-maximized="1"
     inkscape:current-layer="svg3095" /><rect
     width="800"
     height="480"
     id="rect3855"
     fill="white" /><g
     transform="scale(1.2) translate(360 21)"
     id="currentweather"><use
       id="currentweathericon"
       href="icons/ICON_ONE.svg"
       style="display:inline"
       inkscape:highlight-color="#ff0000" /></g><text
     id="temphighlow"
     x="662.43994"
     y="82.871094"
     font-size="38px"
     style="font-size:38px;line-height:0%;font-family:sans-serif;text-anchor:middle"
     inkscape:label="temphighlow">HIGH_ONE/LOW_ONE</text><text
     id="weatherdesc1"
     x="664.4024"
     y="119.91006"
     font-size="38px"
     style="font-size:28px;line-height:0%;font-family:sans-serif;text-anchor:middle">WEATHER_DESC_1</text><text
     id="weaetherdesc2"
     x="668.4024"
     y="151.67058"
     font-size="38px"
     style="font-size:28px;line-height:0%;font-family:sans-serif;text-anchor:middle">WEATHER_DESC_2</text><path
     d="m 401.08466,394.8254 v 70 h 3 v -235.5 h -3 z"
     id="divider"
     inkscape:connector-curvature="0" /><g
     id="calendaricon"
     transform="matrix(0.1,0,0,0.1,430,180)"><path
       style="fill:#090509"
       d="M 506.645,89.372 C 502.609,76.437 491.008,66.87 476.738,66.87 h -31.782 v 49.326 c 0,26.284 -21.39,47.674 -47.674,47.674 -26.284,0 -47.674,-21.39 -47.674,-47.674 V 66.87 H 158.753 v 49.326 c 0,26.284 -21.39,47.674 -47.674,47.674 -26.284,0 -47.674,-21.39 -47.674,-47.674 V 66.87 H 31.782 c -14.27,0 -25.903,9.567 -29.907,22.502 H 0 v 387.365 c 0,17.544 14.239,31.782 31.782,31.782 h 444.955 c 17.544,0 31.782,-14.239 31.782,-31.782 V 89.372 Z M 476.737,476.737 H 31.782 v -254.26 h 444.955 z"
       id="path132"
       inkscape:connector-curvature="0" /><path
       style="fill:#090509"
       d="m 111.08,132.088 c 8.772,0 15.891,-7.119 15.891,-15.891 V 15.891 C 126.971,7.119 119.852,0 111.08,0 102.308,0 95.189,7.119 95.189,15.891 v 100.306 c 0,8.772 7.119,15.891 15.891,15.891 z"
       id="path134"
       inkscape:connector-curvature="0" /><path
       style="fill:#090509"
       d="m 397.281,132.088 c 8.74,0 15.891,-7.119 15.891,-15.891 V 15.891 C 413.172,7.119 406.021,0 397.281,0 388.541,0 381.39,7.119 381.39,15.891 v 100.306 c 0,8.772 7.151,15.891 15.891,15.891 z"
       id="path136"
       inkscape:connector-curvature="0" /></g><text
     id="calendarentry1"
     x="430"
     y="238"
     font-size="29px"
     style="font-size:29px;line-height:0%;font-family:sans-serif"><tspan
       x="430"
       dy="25"
       style="font-size:25px"
       id="tspan1">CAL_DATETIME_1</tspan><tspan
       style="font-weight:bold"
       x="430"
       dy="25"
       id="tspan2"><![CDATA[CAL_DESC_1]]></tspan></text><text
     id="calendarentry2"
     x="430"
     y="298"
     font-size="29px"
     style="font-size:29px;line-height:0%;font-family:sans-serif"><tspan
       x="430"
       dy="25"
       style="font-size:25px"
       id="tspan3">CAL_DATETIME_2</tspan><tspan
       style="font-weight:bold"
       x="430"
       dy="25"
       id="tspan4"><![CDATA[CAL_DESC_2]]></tspan></text><text
     id="calendarentry3"
     x="430"
     y="358"
     font-size="29px"
     style="font-size:29px;line-height:0%;font-family:sans-serif"><tspan
       x="430"
       dy="25"
       style="font-size:25px"
       id="tspan5">CAL_DATETIME_3</tspan><tspan
       style="font-weight:bold"
       x="430"
       dy="25"
       id="tspan6"><![CDATA[CAL_DESC_3]]></tspan></text><text
     id="calendarentry4"
     x="430"
     y="415"
     font-size="29px"
     style="font-size:29px;line-height:0%;font-family:sans-serif"><tspan
       x="430"
       dy="25"
       style="font-size:25px"
       id="tspan7">CAL_DATETIME_4</tspan><tspan
       style="font-weight:bold"
       x="430"
       dy="25"
       id="tspan8"><![CDATA[CAL_DESC_4]]></tspan></text><text
     id="textday"
     x="172.83893"
     y="75.920174"
     style="font-weight:600;font-size:47px;line-height:0%;font-family:sans-serif;text-anchor:middle">DAY_NAME</text><text
     id="textdate"
     x="166.75769"
     y="129.84035"
     style="font-size:40px;line-height:0%;font-family:sans-serif;text-anchor:middle">DAY_ONE</text><use
     id="customdata"
     href="screen-output-custom-temp.svg" /><g
     style="fill:none"
     id="carticon"
     transform="matrix(2.5425041,0,0,2.5425041,26.91499,178.59754)"><path
       d="M 6.29977,5 H 21 l -2,7 H 7.37671 M 20,16 H 8 L 6,3 H 3 m 6,17 c 0,0.5523 -0.44772,1 -1,1 -0.55228,0 -1,-0.4477 -1,-1 0,-0.5523 0.44772,-1 1,-1 0.55228,0 1,0.4477 1,1 z m 11,0 c 0,0.5523 -0.4477,1 -1,1 -0.5523,0 -1,-0.4477 -1,-1 0,-0.5523 0.4477,-1 1,-1 0.5523,0 1,0.4477 1,1 z"
       stroke="#000000"
       stroke-width="2"
       stroke-linecap="round"
       stroke-linejoin="round"
       id="path1" /></g></svg>
